<?xml version="1.0" encoding="UTF-8" standalone="no"?>
<!DOCTYPE svg PUBLIC "-//W3C//DTD SVG 1.1//EN" "http://www.w3.org/Graphics/SVG/1.1/DTD/svg11.dtd">
<svg width="100%" height="100%" viewBox="0 0 78 81" version="1.1" xmlns="http://www.w3.org/2000/svg" xmlns:xlink="http://www.w3.org/1999/xlink" xml:space="preserve" xmlns:serif="http://www.serif.com/" style="fill-rule:evenodd;clip-rule:evenodd;stroke-linejoin:round;stroke-miterlimit:2;">
    <g transform="matrix(1,0,0,1,-11.998,-6.02655)">
        <path d="M79.44,50.554L57.019,73.23C55.91,74.352 54.396,74.985 52.819,74.985L28.245,74.985L17.123,86.123C16.56,86.685 15.796,87.002 15,87.002C13.353,87.002 11.998,85.647 11.998,84C11.998,83.204 12.315,82.44 12.877,81.878L21.349,73.41L46.763,48L78.375,48C79.197,48.001 79.872,48.678 79.872,49.5C79.872,49.894 79.717,50.273 79.44,50.554ZM81.262,11.464C71.774,3.655 57.744,4.331 49.05,13.016L45.45,16.571C45.167,16.849 45.005,17.228 45,17.625L45,41.25L65.625,20.625C66.182,20.095 66.923,19.8 67.691,19.8C69.337,19.8 70.691,21.154 70.691,22.8C70.691,23.569 70.396,24.309 69.866,24.866L52.766,42L85.909,42C86.469,42.001 86.986,41.688 87.244,41.19C92.523,31.153 90.013,18.678 81.263,11.464L81.262,11.464ZM23.561,62.711L39,47.273L39,26.535C38.999,25.713 38.322,25.038 37.5,25.038C37.106,25.038 36.727,25.193 36.446,25.47L22.759,39C21.63,40.122 20.997,41.65 21,43.241L21,61.651C21,62.474 21.677,63.151 22.5,63.151C22.898,63.151 23.28,62.993 23.561,62.711Z" style="fill:rgb(6,78,59);fill-rule:nonzero;"/>
    </g>
</svg>
