<?xml version="1.0" encoding="UTF-8" standalone="no"?>
<!DOCTYPE svg PUBLIC "-//W3C//DTD SVG 1.1//EN" "http://www.w3.org/Graphics/SVG/1.1/DTD/svg11.dtd">
<svg width="100%" height="100%" viewBox="0 0 78 81" version="1.1" xmlns="http://www.w3.org/2000/svg"
     xml:space="preserve"
     style="fill-rule:evenodd;clip-rule:evenodd;stroke-linejoin:round;stroke-miterlimit:2;">
    <style>
  path {
    fill: #064e3b;
  }
  @media (prefers-color-scheme: dark) {
    path { fill: #059669; }
  }
</style>

    <path d="M67.442,44.527L45.021,67.203C43.912,68.325 42.398,68.958 40.821,68.958L16.247,68.958L5.125,80.096C4.562,80.658 3.798,80.975 3.002,80.975C1.355,80.975 0,79.62 0,77.973C0,77.177 0.317,76.413 0.879,75.851L9.351,67.383L34.765,41.973L66.377,41.973C67.199,41.974 67.874,42.651 67.874,43.473C67.874,43.867 67.719,44.246 67.442,44.527ZM69.264,5.437C59.776,-2.372 45.746,-1.696 37.052,6.989L33.452,10.544C33.169,10.822 33.007,11.201 33.002,11.598L33.002,35.223L53.627,14.598C54.184,14.068 54.925,13.773 55.693,13.773C57.339,13.773 58.693,15.127 58.693,16.773C58.693,17.542 58.398,18.282 57.868,18.839L40.768,35.973L73.911,35.973C74.471,35.974 74.988,35.661 75.246,35.163C80.525,25.126 78.015,12.651 69.265,5.437L69.264,5.437ZM11.563,56.684L27.002,41.246L27.002,20.508C27.001,19.686 26.324,19.011 25.502,19.011C25.108,19.011 24.729,19.166 24.448,19.443L10.761,32.973C9.632,34.095 8.999,35.623 9.002,37.214L9.002,55.624C9.002,56.447 9.679,57.124 10.502,57.124C10.9,57.124 11.282,56.966 11.563,56.684Z"/>
</svg>
